# xmcd CD database file
#
# Track frame offsets:
#	182
#	27017
#	45815
#	70710
#	101545
#	130065
#	149112
#	176517
#	202917
#	220600
#	246375
#	292517
#
# Disc length: 4180 seconds
#
# Revision: 2
# Processed by: cddbd v1.4PL0 Copyright (c) Steve Scherf et al.
# Submitted via: CDex 1.51
#
DISCID=9f10520c
DTITLE=Long John Baldry - On Stage Tonight - Baldry's Out
DYEAR=1993
DGENRE=Blues
TTITLE0=Everyday I Have The Blues - Times Are Getting Tougher Then Tough
TTITLE1=Shake That Thing
TTITLE2=Insane Asylum
TTITLE3=I'm Ready
TTITLE4=I'd Rather Go Blind
TTITLE5=Baldry's Out
TTITLE6=A Thrill's A Thrill
TTITLE7=Backwater Blues
TTITLE8=It Ain't Easy
TTITLE9=Stormy Monday Blues
TTITLE10=Don't Try To Lay No Boogie Woogie On The King Of Rock And Roll
TTITLE11=Midnight In New Orleans
EXTD=YEAR: 1993
EXTT0=
EXTT1=
EXTT2=
EXTT3=
EXTT4=
EXTT5=
EXTT6=
EXTT7=
EXTT8=
EXTT9=
EXTT10=
EXTT11=
PLAYORDER=
